<svg width="80" height="80" viewBox="0 0 80 80" fill="none" xmlns="http://www.w3.org/2000/svg">
<path d="M28.4312 58.3936C26.0777 58.3936 24.1779 56.5044 24.1779 54.1641V28.787C24.1779 14.6463 34.8394 5.3414 39.7732 2.00008C44.7353 5.3414 55.3684 14.604 55.3684 28.787V54.1641C55.3684 56.5044 53.4686 58.3936 51.1152 58.3936H28.4312Z" stroke="white" stroke-width="2" stroke-linejoin="round"/>
<path d="M39.7726 33.0166C42.9046 33.0166 45.4436 30.4917 45.4436 27.3772C45.4436 24.2627 42.9046 21.7379 39.7726 21.7379C36.6406 21.7379 34.1016 24.2627 34.1016 27.3772C34.1016 30.4917 36.6406 33.0166 39.7726 33.0166Z" stroke="white" stroke-width="2" stroke-linejoin="round"/>
<path d="M29.8486 58.3934H49.6971V61.2131C49.6971 62.7639 48.4211 64.0327 46.8616 64.0327H32.6841C31.1246 64.0327 29.8486 62.7639 29.8486 61.2131V58.3934Z" stroke="white" stroke-width="2" stroke-linejoin="round"/>
<path d="M39.7734 41.4754V58.3935" stroke="white" stroke-width="2" stroke-linecap="round" stroke-linejoin="round"/>
<path d="M39.7734 78.1312V69.6722" stroke="white" stroke-width="2" stroke-linecap="round" stroke-linejoin="round"/>
<path d="M49.6972 75.3115V69.6722" stroke="white" stroke-width="2" stroke-linecap="round" stroke-linejoin="round"/>
<path d="M58.204 69.6721V62.623" stroke="white" stroke-width="2" stroke-linecap="round" stroke-linejoin="round"/>
<path d="M21.3428 69.6721V62.6229" stroke="white" stroke-width="2" stroke-linecap="round" stroke-linejoin="round"/>
<path d="M29.8486 75.3115V69.6722" stroke="white" stroke-width="2" stroke-linecap="round" stroke-linejoin="round"/>
<path d="M30.8133 10.459H48.762" stroke="white" stroke-width="2" stroke-linejoin="round"/>
<path d="M65.2501 55.5738H55.3684V30.1967L68.752 48.8207C69.2765 49.5397 69.5459 50.4138 69.5459 51.302C69.5459 53.6564 67.6178 55.5738 65.2501 55.5738Z" stroke="white" stroke-width="2" stroke-linejoin="round"/>
<path d="M14.2958 55.5738H24.1775V30.1967L10.7939 48.8207C10.2694 49.5397 10 50.4138 10 51.302C10 53.6564 11.9281 55.5738 14.2958 55.5738Z" stroke="white" stroke-width="2" stroke-linejoin="round"/>
</svg>
