<svg width="80" height="80" viewBox="0 0 80 80" fill="none" xmlns="http://www.w3.org/2000/svg">
<path d="M24.4375 35.7692C28.7867 35.7692 32.3125 32.2564 32.3125 27.9231C32.3125 23.5897 28.7867 20.0769 24.4375 20.0769C20.0883 20.0769 16.5625 23.5897 16.5625 27.9231C16.5625 32.2564 20.0883 35.7692 24.4375 35.7692Z" stroke="white" stroke-width="2" stroke-linecap="round" stroke-linejoin="round"/>
<path d="M62.5 25.3077C63.9438 25.3077 65.125 26.4846 65.125 27.9231C65.125 29.3615 63.9438 30.5385 62.5 30.5385H44.125C42.6812 30.5385 41.5 29.3615 41.5 27.9231C41.5 26.4846 42.6812 25.3077 44.125 25.3077L41.5 8.30769L48.0625 12.2308L53.3125 7L58.5625 12.2308L65.125 8.30769L62.5 25.3077Z" stroke="white" stroke-width="2" stroke-linecap="round" stroke-linejoin="round"/>
<path d="M41.5 59.3078C41.5 57.8693 42.6812 56.6924 44.125 56.6924C49.375 47.5386 49.375 35.7693 45.4375 30.5386H61.1875C57.25 35.7693 57.25 47.5386 62.5 56.6924C63.9438 56.6924 65.125 57.8693 65.125 59.3078C65.125 60.7463 63.9438 61.9232 62.5 61.9232H46.75" stroke="white" stroke-width="2" stroke-linecap="round" stroke-linejoin="round"/>
<path d="M33.625 61.9231C36.5256 61.9231 38.875 64.2639 38.875 67.1539V71.077C38.875 71.7962 38.2844 72.3847 37.5625 72.3847H11.3125C10.5906 72.3847 10 71.7962 10 71.077V67.1539C10 64.2639 12.3494 61.9231 15.25 61.9231C19.1875 55.3847 20.5 47.5385 17.875 41.0001C16.4312 41.0001 15.25 39.8231 15.25 38.3847C15.25 36.9462 16.4312 35.7693 17.875 35.7693H31C32.4438 35.7693 33.625 36.9462 33.625 38.3847C33.625 39.8231 32.4438 41.0001 31 41.0001C28.375 47.5385 29.6875 55.3847 33.625 61.9231Z" stroke="white" stroke-width="2" stroke-linecap="round" stroke-linejoin="round"/>
<path d="M62.5 61.9231H65.125C68.0256 61.9231 70.375 64.2639 70.375 67.1539V71.0769C70.375 71.7962 69.7844 72.3846 69.0625 72.3846H44.125" stroke="white" stroke-width="2" stroke-linecap="round" stroke-linejoin="round"/>
<path d="M49.375 25.3079H62.5" stroke="white" stroke-width="2" stroke-linecap="round" stroke-linejoin="round"/>
<path d="M50.6875 56.6924H62.5" stroke="white" stroke-width="2" stroke-linecap="round" stroke-linejoin="round"/>
<path d="M24.4375 41H31" stroke="white" stroke-width="2" stroke-linecap="round" stroke-linejoin="round"/>
<path d="M21.8125 61.9231H33.625" stroke="white" stroke-width="2" stroke-linecap="round" stroke-linejoin="round"/>
</svg>
