<svg width="80" height="80" viewBox="0 0 80 80" fill="none" xmlns="http://www.w3.org/2000/svg">
<path d="M13.8711 39.6924H21.0767C22.0086 39.6924 22.6386 40.6208 22.2973 41.4839C21.9955 42.2032 21.8248 42.9485 21.8248 43.6155C21.8248 45.7862 23.5836 47.5385 25.7623 47.5385C27.9411 47.5385 29.6998 45.7862 29.6998 43.6155C29.6998 42.9485 29.5292 42.2032 29.2273 41.4839C28.873 40.6339 29.5161 39.6924 30.448 39.6924H40.1998" stroke="white" stroke-width="2" stroke-linecap="round" stroke-linejoin="round"/>
<path d="M40.2002 63.8585V57.4378C40.2002 56.5093 41.1321 55.8816 41.9983 56.2216C42.7202 56.5224 43.4683 56.6924 44.1377 56.6924C46.3164 56.6924 48.0752 54.9401 48.0752 52.7693C48.0752 50.5985 46.3164 48.8462 44.1377 48.8462C43.4683 48.8462 42.7202 49.0162 41.9983 49.317C41.1452 49.6701 40.2002 49.0293 40.2002 48.1008V39.6924" stroke="white" stroke-width="2" stroke-linecap="round" stroke-linejoin="round"/>
<path d="M66.5289 39.6923H59.3233C58.3914 39.6923 57.7614 38.7639 58.1027 37.9008C58.4046 37.1816 58.5752 36.4362 58.5752 35.7693C58.5752 33.5985 56.8164 31.8462 54.6377 31.8462C52.4589 31.8462 50.7002 33.5985 50.7002 35.7693C50.7002 36.4362 50.8708 37.1816 51.1727 37.9008C51.5271 38.7508 50.8839 39.6923 49.9521 39.6923H40.2002" stroke="white" stroke-width="2" stroke-linecap="round" stroke-linejoin="round"/>
<path d="M40.2002 15.5261V21.9469C40.2002 22.8754 39.2683 23.503 38.4021 23.163C37.6802 22.8623 36.9321 22.6923 36.2627 22.6923C34.0839 22.6923 32.3252 24.4446 32.3252 26.6154C32.3252 28.7861 34.0839 30.5384 36.2627 30.5384C36.9321 30.5384 37.6802 30.3684 38.4021 30.0677C39.2552 29.7146 40.2002 30.3554 40.2002 31.2838V39.6923" stroke="white" stroke-width="2" stroke-linecap="round" stroke-linejoin="round"/>
<path d="M40.2006 63.8585C40.2006 68.5662 36.3419 72.3846 31.5775 72.3846C27.8106 72.3846 24.6212 69.9915 23.44 66.67C23.2825 66.67 23.1119 66.6962 22.9413 66.6962C18.1769 66.6962 14.3181 62.8777 14.3181 58.17C14.3181 56.8885 14.6069 55.6723 15.1187 54.5869C12.1 53.2531 10 50.2715 10 46.7931C10 43.8246 11.5356 41.2092 13.8588 39.6923C11.5356 38.1623 10 35.5469 10 32.5915C10 29.1131 12.1 26.1315 15.1187 24.7977C14.6069 23.7123 14.3181 22.4962 14.3181 21.2146C14.3181 16.5069 18.1769 12.6885 22.9413 12.6885C23.1119 12.6885 23.2694 12.7015 23.44 12.7146C24.6212 9.39308 27.8106 7 31.5775 7C36.3419 7 40.2006 10.8185 40.2006 15.5262C40.2006 10.8185 44.0594 7 48.8237 7C52.5906 7 55.78 9.39308 56.9612 12.7146C57.1187 12.7146 57.2894 12.6885 57.46 12.6885C62.2244 12.6885 66.0831 16.5069 66.0831 21.2146C66.0831 22.4962 65.7944 23.7123 65.2825 24.7977C68.3012 26.1315 70.4012 29.1131 70.4012 32.5915C70.4012 35.56 68.8656 38.1754 66.5425 39.6923C68.8656 41.2223 70.4012 43.8377 70.4012 46.7931C70.4012 50.2715 68.3012 53.2531 65.2825 54.5869C65.7944 55.6723 66.0831 56.8885 66.0831 58.17C66.0831 62.8777 62.2244 66.6962 57.46 66.6962C57.2894 66.6962 57.1319 66.6831 56.9612 66.67C55.78 69.9915 52.5906 72.3846 48.8237 72.3846C44.0594 72.3846 40.2006 68.5662 40.2006 63.8585Z" stroke="white" stroke-width="2" stroke-linecap="round" stroke-linejoin="round"/>
<path d="M49.3877 17.4617C53.7321 17.4617 57.2627 20.9794 57.2627 25.3078" stroke="white" stroke-width="2" stroke-linecap="round" stroke-linejoin="round"/>
<path d="M23.1377 25.3078C23.1377 20.9794 26.6683 17.4617 31.0127 17.4617" stroke="white" stroke-width="2" stroke-linecap="round" stroke-linejoin="round"/>
<path d="M57.2627 54.0769C57.2627 58.4054 53.7321 61.9231 49.3877 61.9231" stroke="white" stroke-width="2" stroke-linecap="round" stroke-linejoin="round"/>
<path d="M31.0127 61.9231C26.6683 61.9231 23.1377 58.4054 23.1377 54.0769" stroke="white" stroke-width="2" stroke-linecap="round" stroke-linejoin="round"/>
</svg>
